<?xml version="1.0" standalone="no"?>
<!DOCTYPE svg PUBLIC "-//W3C//DTD SVG 20010904//EN"
 "http://www.w3.org/TR/2001/REC-SVG-20010904/DTD/svg10.dtd">
<svg version="1.0" xmlns="http://www.w3.org/2000/svg"
 width="500.000000pt" height="500.000000pt" viewBox="0 0 500.000000 500.000000"
 preserveAspectRatio="xMidYMid meet">
<metadata>
Created by potrace 1.14, written by Peter Selinger 2001-2017
</metadata>
<g transform="translate(0.000000,500.000000) scale(0.100000,-0.100000)"
fill="#000000" stroke="none">
<path d="M2812 2328 c-28 -28 -7 -78 33 -78 27 0 45 18 45 45 0 27 -18 45 -45
45 -12 0 -26 -5 -33 -12z"/>
<path d="M920 2120 l0 -200 40 0 40 0 0 80 0 80 55 0 c81 0 95 18 95 120 0
112 -9 120 -135 120 l-95 0 0 -200z m140 80 l0 -60 -30 0 -30 0 0 60 0 60 30
0 30 0 0 -60z"/>
<path d="M1440 2120 l0 -200 40 0 39 0 3 62 c2 34 8 63 14 65 6 2 24 -26 40
-61 l29 -65 42 -1 43 0 -26 58 c-48 106 -48 102 -15 175 l30 67 -42 0 c-42 0
-43 -1 -62 -50 -13 -34 -25 -50 -37 -50 -16 0 -18 11 -18 100 l0 100 -40 0
-40 0 0 -200z"/>
<path d="M1690 2285 c0 -33 2 -35 35 -35 l35 0 0 -165 0 -165 40 0 40 0 0 165
0 165 35 0 c33 0 35 2 35 35 l0 35 -110 0 -110 0 0 -35z"/>
<path d="M3200 2120 l0 -200 40 0 40 0 0 200 0 200 -40 0 -40 0 0 -200z"/>
<path d="M3440 2120 l0 -200 40 0 40 0 0 80 0 80 35 0 35 0 0 -80 0 -80 45 0
45 0 0 200 0 200 -45 0 -45 0 0 -86 0 -85 -32 3 -33 3 -3 83 -3 82 -39 0 -40
0 0 -200z"/>
<path d="M3990 2120 l0 -200 35 0 c19 0 35 4 35 9 0 5 14 3 30 -6 34 -17 74
-11 103 14 14 14 17 34 17 135 0 107 -2 120 -21 139 -18 18 -30 20 -70 17
l-49 -5 0 48 0 49 -40 0 -40 0 0 -200z m138 -47 c-3 -97 -3 -98 -28 -98 -25 0
-25 1 -28 98 l-3 97 31 0 31 0 -3 -97z"/>
<path d="M2200 2123 c0 -93 4 -173 8 -180 10 -16 57 -33 93 -33 25 0 29 4 29
29 0 23 -5 30 -22 33 -22 3 -23 8 -26 96 l-3 92 26 0 c21 0 25 5 25 30 0 25
-4 30 -25 30 -22 0 -25 4 -25 35 0 34 -1 35 -40 35 l-40 0 0 -167z"/>
<path d="M1201 2211 c-19 -19 -21 -33 -21 -140 0 -131 5 -144 60 -156 19 -4
41 -1 60 8 16 9 30 11 30 6 0 -5 16 -9 35 -9 l35 0 0 150 0 151 -42 0 c-24 0
-64 2 -90 5 -38 5 -50 2 -67 -15z m114 -141 c0 -95 0 -95 -25 -95 -25 0 -25 1
-28 98 l-3 98 28 -3 28 -3 0 -95z"/>
<path d="M2381 2204 c-18 -23 -21 -41 -21 -134 0 -132 10 -150 87 -157 28 -3
67 0 87 7 30 10 37 18 47 53 6 23 9 82 7 131 -5 113 -18 126 -118 126 -62 0
-71 -2 -89 -26z m119 -130 l0 -105 -27 3 c-28 3 -28 3 -31 92 -3 106 -1 116
33 116 l25 0 0 -106z"/>
<path d="M2717 2213 c-11 -11 -17 -13 -17 -5 0 7 -14 12 -35 12 l-35 0 0 -150
0 -150 40 0 39 0 3 113 3 112 28 3 c24 3 27 7 27 43 0 31 -4 39 -18 39 -10 0
-25 -8 -35 -17z"/>
<path d="M2951 2205 c-18 -24 -21 -40 -21 -135 0 -133 12 -155 81 -153 24 1
68 2 97 2 l52 1 0 150 0 151 -47 -1 c-27 0 -69 3 -94 6 -42 5 -48 3 -68 -21z
m117 -132 c-3 -97 -3 -98 -28 -98 -24 0 -25 2 -28 84 -3 101 0 111 33 111 l26
0 -3 -97z"/>
<path d="M1930 2091 c0 -153 10 -175 76 -173 21 0 63 1 92 1 l52 1 0 150 0
150 -40 0 -39 0 -3 -122 -3 -123 -25 0 -25 0 -3 123 -3 122 -39 0 -40 0 0
-129z"/>
<path d="M2800 2070 l0 -150 45 0 45 0 0 150 0 150 -45 0 -45 0 0 -150z"/>
<path d="M3722 2085 c3 -154 11 -170 75 -168 21 1 64 2 96 2 l57 0 0 151 0
150 -45 0 -45 0 0 -125 0 -125 -25 0 -25 0 0 125 0 125 -46 0 -46 0 4 -135z"/>
<path d="M1987 1724 c-16 -16 -7 -44 14 -44 15 0 20 5 17 22 -3 22 -19 33 -31
22z"/>
<path d="M3217 1724 c-16 -16 -7 -44 14 -44 15 0 20 5 17 22 -3 22 -19 33 -31
22z"/>
<path d="M1900 1625 c0 -88 1 -95 20 -95 19 0 20 7 20 95 0 88 -1 95 -20 95
-19 0 -20 -7 -20 -95z"/>
<path d="M1562 1700 c-28 -12 -55 -71 -46 -105 9 -35 50 -65 91 -65 46 0 83
37 83 84 0 48 -8 65 -41 81 -32 17 -54 18 -87 5z m76 -42 c7 -7 12 -24 12 -38
0 -31 -17 -50 -45 -50 -28 0 -45 19 -45 50 0 31 17 50 45 50 12 0 26 -5 33
-12z"/>
<path d="M2470 1620 l0 -90 50 0 c37 0 50 4 50 14 0 9 -12 16 -27 18 -27 3
-28 5 -31 76 -3 64 -5 72 -22 72 -18 0 -20 -7 -20 -90z"/>
<path d="M1720 1599 c0 -62 2 -69 20 -69 16 0 20 7 20 38 0 46 12 65 36 60 15
-2 20 -14 22 -51 3 -39 6 -47 23 -47 16 0 19 7 19 54 0 71 -14 85 -85 84 l-55
-1 0 -68z"/>
<path d="M1980 1600 c0 -63 2 -70 20 -70 18 0 20 7 20 70 0 63 -2 70 -20 70
-18 0 -20 -7 -20 -70z"/>
<path d="M2060 1599 c0 -62 2 -69 19 -69 17 0 20 8 23 47 2 37 7 49 22 51 24
5 36 -14 36 -60 0 -31 4 -38 20 -38 18 0 20 7 20 53 0 69 -17 85 -87 85 l-53
0 0 -69z"/>
<path d="M2247 1652 c-23 -25 -22 -85 1 -105 25 -22 75 -21 95 1 26 28 21 34
-22 27 -24 -4 -42 -2 -46 4 -4 7 11 11 44 11 58 0 64 11 30 54 -25 32 -77 36
-102 8z m73 -32 c0 -5 -12 -10 -26 -10 -14 0 -23 4 -19 10 3 6 15 10 26 10 10
0 19 -4 19 -10z"/>
<path d="M2600 1650 c-41 -41 -10 -120 46 -120 34 0 64 17 64 36 0 13 -8 14
-40 9 -26 -4 -40 -3 -40 4 0 6 19 11 45 11 41 0 45 2 45 24 0 51 -81 75 -120
36z m70 -30 c0 -5 -9 -10 -20 -10 -11 0 -20 5 -20 10 0 6 9 10 20 10 11 0 20
-4 20 -10z"/>
<path d="M2755 1647 c-8 -12 -15 -33 -15 -47 0 -14 7 -35 15 -47 13 -18 25
-22 75 -22 l60 1 0 68 0 68 -60 1 c-50 0 -62 -4 -75 -22z m80 -47 c0 -18 -6
-26 -21 -28 -23 -3 -37 18 -27 44 10 25 48 13 48 -16z"/>
<path d="M2930 1600 c0 -63 2 -70 20 -70 17 0 20 7 20 46 0 37 4 47 20 51 11
3 20 14 20 24 0 22 -11 24 -28 7 -9 -9 -12 -9 -12 0 0 7 -9 12 -20 12 -18 0
-20 -7 -20 -70z"/>
<path d="M3030 1599 c0 -62 2 -69 20 -69 16 0 20 7 20 38 0 46 12 65 36 60 15
-2 20 -14 22 -51 3 -39 6 -47 23 -47 16 0 19 7 19 54 0 71 -14 85 -85 84 l-55
-1 0 -68z"/>
<path d="M3210 1600 c0 -63 2 -70 20 -70 18 0 20 7 20 70 0 63 -2 70 -20 70
-18 0 -20 -7 -20 -70z"/>
<path d="M3290 1599 c0 -62 2 -69 19 -69 17 0 20 8 23 47 2 37 7 49 22 51 24
5 36 -14 36 -60 0 -31 4 -38 20 -38 18 0 20 7 20 53 0 69 -17 85 -87 85 l-53
0 0 -69z"/>
<path d="M3476 1651 c-23 -25 -21 -84 4 -106 14 -13 28 -16 50 -11 26 5 31 3
28 -12 -3 -14 -13 -16 -51 -14 -39 2 -46 0 -41 -13 14 -35 74 -46 112 -19 20
14 22 24 22 104 l0 88 -54 1 c-39 0 -58 -5 -70 -18z m79 -51 c0 -18 -6 -26
-23 -28 -24 -4 -38 18 -28 44 3 9 15 14 28 12 17 -2 23 -10 23 -28z"/>
</g>
</svg>
